<svg width="115" height="168" viewBox="0 0 115 168" fill="none" xmlns="http://www.w3.org/2000/svg">
<path fill-rule="evenodd" clip-rule="evenodd" d="M101.113 116.033C108.048 106.588 112.903 94.9683 114.356 84.4427C115.49 76.107 114.714 66.0464 112.202 56.145C110.071 47.7545 106.973 38.9684 104.011 32.8889C100.915 26.561 97.3868 20.9991 91.3941 12.9438C84.359 3.47555 81.9755 1.0493 79.5136 0.809301C78.6672 0.719242 78.3785 0.820216 77.9089 1.38473L77.3219 2.09037L78.9187 3.65747C80.512 5.18764 81.1476 6.02335 88.2339 16.2506C94.2843 24.9338 97.3457 30.2777 100.497 37.6063C105.919 50.2023 109.303 65.1269 109.055 75.5978C108.813 85.9378 105.65 95.8937 99.3297 106.362C98.5351 107.646 96.5898 110.189 93.9735 113.334C89.425 118.761 87.2208 120.919 82.687 124.277C73.3544 131.148 65.4953 133.991 46.8329 137.228C43.1293 137.866 35.1474 138.765 34.9054 138.563C34.8449 138.513 35.3751 137.999 36.0865 137.431C38.0126 135.895 38.7605 134.914 39.058 133.49C39.3688 132.008 38.7524 130.165 37.6432 129.243C35.9694 127.85 33.8335 127.915 30.7152 129.449C29.8794 129.88 25.3174 131.918 20.591 133.99C11.1011 138.137 9.44629 138.978 5.97953 141.382C1.75766 144.283 0.198528 146.772 0.695184 149.744C1.14112 152.366 3.08755 154.293 5.98314 154.996C6.81955 155.18 9.671 155.403 12.341 155.475C17.9965 155.608 19.4475 155.792 22.8942 156.817C26.1494 157.785 30.0905 159.529 36.2495 162.708C47.0086 168.315 46.4643 168.067 46.3692 167.032C46.2538 165.777 39.8289 158.692 35.6745 155.236C32.7503 152.804 30.7709 151.532 27.3773 149.869C26.0501 149.209 24.9749 148.655 24.9715 148.618C24.9681 148.581 26.4626 148.631 28.2796 148.743C36.3502 149.215 52.0076 146.718 64.2181 142.992C74.1625 139.939 81.3051 135.988 89.2205 129.098C93.5154 125.37 97.3698 121.106 101.113 116.033Z" fill="url(#paint0_linear_298_435)"/>
<defs>
<linearGradient id="paint0_linear_298_435" x1="21.4995" y1="173.109" x2="50.4715" y2="-50.7531" gradientUnits="userSpaceOnUse">
<stop stop-color="#1E1E1E"/>
<stop offset="1" stop-color="#1E1E1E" stop-opacity="0"/>
</linearGradient>
</defs>
</svg>
