<svg width="121" height="122" viewBox="0 0 121 122" fill="none" xmlns="http://www.w3.org/2000/svg">
<path fill-rule="evenodd" clip-rule="evenodd" d="M111.846 55.5235C108.741 61.4388 100.411 72.8318 94.5093 79.244C91.7336 82.2825 86.9216 86.6469 84.1441 88.6674C77.7244 93.3322 66.1509 98.8854 56.3447 102.026C46.3564 105.215 34.7892 107.536 22.3069 108.883L17.9116 109.358L19.3323 109.816C20.1159 110.064 22.3936 110.79 24.3815 111.428L28.01 112.583L28.8068 113.722C30.3191 115.875 31.8188 120.627 31.1472 121.126C30.8677 121.337 29.3438 121.133 28.3425 120.745C27.8802 120.556 26.8969 120.348 26.1713 120.307C25.2289 120.248 24.7156 120.109 24.4185 119.815C24.1473 119.583 22.3681 118.857 19.8482 118.002C12.5941 115.51 9.89038 114.682 7.20751 114.127L4.61026 113.586L3.6732 112.492C1.92603 110.416 -0.414072 103.734 0.144524 102.364C0.422043 101.684 2.69922 100.69 11.8655 97.2478C15.955 95.7015 23.1794 92.8299 27.9037 90.7999L36.4976 87.1645L37.2854 88.0759C38.7707 89.8212 40.9067 95.657 40.4584 96.7559C40.373 96.9652 34.3043 100.695 32.0887 101.887L30.7932 102.569L32.0904 102.406C34.4661 102.094 44.1018 100.094 47.1911 99.2787C54.4666 97.3537 62.8331 94.2257 68.657 91.271C77.2822 86.8854 84.7876 81.28 90.1571 75.1999C96.5153 68.0177 101.959 60.4829 106.533 52.6133C108.638 48.9755 113.327 37.4807 114.264 33.6618C115.861 27.0802 117.02 16.9833 117.037 9.36068C117.029 7.21094 116.932 6.60155 116.151 4.62492C115.211 2.21692 115.093 0.73459 115.884 0.914916C117.112 1.17169 119.593 5.9883 120.294 9.52986C120.88 12.3325 120.942 15.0738 120.592 20.7194C120.147 28.0453 119.2 34.18 117.56 40.5707C116.769 43.656 113.282 52.7522 111.811 55.5093L111.846 55.5235Z" fill="url(#paint0_linear_298_773)"/>
<defs>
<linearGradient id="paint0_linear_298_773" x1="5.19808" y1="111.128" x2="159.294" y2="-55.1178" gradientUnits="userSpaceOnUse">
<stop stop-color="#1E1E1E"/>
<stop offset="1" stop-color="#1E1E1E" stop-opacity="0"/>
</linearGradient>
</defs>
</svg>
