<svg width="97" height="90" viewBox="0 0 97 90" fill="none" xmlns="http://www.w3.org/2000/svg">
<path d="M73.0159 80.8615C73.0159 80.8615 55.0147 87.054 43.5001 85.2583C34.8376 83.9074 29.0992 82.7913 22.6585 76.9146M22.6585 76.9146C22.6585 76.9146 43.3528 63.6159 58.385 60.4409C69.676 58.0561 86.8868 59.458 91.8035 59.933C92.4776 59.9981 93.0276 59.4148 92.8971 58.7501C91.4398 51.3228 84.3868 14.9071 85.0263 8.99908C85.6571 3.17124 72.7342 31.7357 69.753 38.3838C69.4603 39.0366 68.621 39.181 68.1329 38.658C63.0005 33.1593 40.051 8.45523 38.4113 4.62672C36.7666 0.786269 34.02 37.2563 33.4382 45.2894C33.3852 46.0205 32.5948 46.4274 31.9526 46.0739C25.749 42.6589 0.827277 29.1435 4.48056 34.4606C8.64788 40.5258 22.6585 76.9146 22.6585 76.9146Z" stroke="#FF7439" stroke-width="8"/>
</svg>
