<svg width="101" height="98" viewBox="0 0 101 98" fill="none" xmlns="http://www.w3.org/2000/svg">
<path d="M85.3104 77.2094C85.3104 77.2094 70.5859 89.275 59.1654 91.5953C50.5738 93.3409 44.8054 94.2899 36.7231 91.0196M36.7231 91.0196C36.7231 91.0196 51.5016 71.3547 64.4917 63.1508C74.2488 56.9886 90.8731 52.3183 95.6481 51.054C96.3029 50.8807 96.6156 50.1425 96.2622 49.5647C92.3131 43.1076 73.0375 11.4169 71.5827 5.65521C70.1476 -0.028289 67.9638 31.2473 67.4805 38.5171C67.433 39.231 66.6963 39.6583 66.0568 39.3376C59.3326 35.9667 29.2249 20.7845 26.3563 17.765C23.4788 14.7362 33.5852 49.8854 35.8331 57.6195C36.0376 58.3234 35.4381 58.9798 34.713 58.8716C27.709 57.8269 -0.357116 53.8209 4.91709 57.5358C10.9334 61.7735 36.7231 91.0196 36.7231 91.0196Z" stroke="white" stroke-width="8"/>
</svg>
