<svg width="245" height="30" viewBox="0 0 245 30" fill="none" xmlns="http://www.w3.org/2000/svg">
<path d="M125.388 29.3338C129.906 29.3338 133.659 27.33 133.659 23.2131C133.659 19.4605 130.562 18.6589 125.425 17.3838C121.381 16.3637 119.778 15.9265 119.778 14.3234C119.778 12.6111 121.672 11.3723 124.915 11.3723C127.611 11.3723 129.542 12.2103 130.307 14.2506H133.367C132.566 10.6437 129.542 8.49414 124.842 8.49414C120.106 8.49414 116.717 10.6801 116.717 14.542C116.717 17.821 119.122 18.8047 124.66 20.1891C128.34 21.0999 130.562 21.5007 130.562 23.4681C130.562 25.399 128.376 26.4556 125.388 26.4556C121.672 26.4556 119.596 25.4719 118.794 22.6666H115.697C116.499 26.8928 120.142 29.3338 125.388 29.3338Z" fill="white"/>
<path d="M145.47 8.49414C139.495 8.49414 135.232 12.9025 135.232 18.9868C135.232 25.1076 139.568 29.3338 145.507 29.3338C149.696 29.3338 153.34 27.2571 155.016 22.9945H151.882C150.68 25.3262 148.385 26.492 145.616 26.492C141.572 26.492 138.621 23.9782 138.329 19.8248H155.489C155.744 13.2304 151.7 8.49414 145.47 8.49414ZM145.47 11.3359C149.077 11.3359 151.554 13.6312 152.21 16.983H138.475C139.167 13.7041 141.79 11.3359 145.47 11.3359Z" fill="white"/>
<path d="M167.595 8.49414C161.911 8.49414 157.284 12.9025 157.284 18.914C157.284 24.889 161.838 29.3338 167.595 29.3338C173.388 29.3338 177.942 24.9254 177.942 18.914C177.942 12.9025 173.315 8.49414 167.595 8.49414ZM167.595 11.3723C171.639 11.3723 174.881 14.5056 174.881 18.914C174.881 23.3224 171.675 26.4556 167.595 26.4556C163.551 26.4556 160.345 23.3224 160.345 18.914C160.345 14.4691 163.587 11.3723 167.595 11.3723Z" fill="white"/>
<path d="M194.275 25.5448C192.781 26.0913 191.324 26.5285 189.903 26.5285C186.769 26.5285 185.239 24.5611 185.239 21.1364V11.7367H194.238V8.8949H185.239V3.42996L182.215 4.08575V8.8949H178.353V11.7367H182.215V21.2821C182.215 26.5649 185.094 29.3338 189.393 29.3338C191.579 29.3338 193.728 28.6416 194.821 28.0586L194.275 25.5448Z" fill="white"/>
<path d="M198.597 0.078125C197.394 0.078125 196.483 0.952518 196.483 2.08194C196.483 3.24779 197.394 4.12218 198.597 4.12218C199.799 4.12218 200.71 3.24779 200.71 2.08194C200.71 0.952518 199.799 0.078125 198.597 0.078125ZM197.066 28.933H200.09V8.8949H197.066V28.933Z" fill="white"/>
<path d="M213.187 29.3338C217.777 29.3338 221.821 26.6013 222.914 21.9379H219.781C218.834 24.7432 216.284 26.5285 213.187 26.5285C208.997 26.5285 205.9 23.3588 205.9 18.914C205.9 14.5056 208.961 11.2995 213.187 11.2995C216.284 11.2995 218.834 13.0483 219.781 15.89H222.914C221.858 11.2995 217.85 8.49414 213.187 8.49414C207.321 8.49414 202.84 12.939 202.84 18.914C202.84 24.889 207.321 29.3338 213.187 29.3338Z" fill="white"/>
<path d="M241.587 8.8949V13.0118C240.057 10.2794 237.325 8.49414 233.864 8.49414C228.435 8.49414 224.5 12.8297 224.5 18.914C224.5 24.9618 228.399 29.3338 233.864 29.3338C237.325 29.3338 240.021 27.585 241.587 24.889V28.933H244.611V8.8949H241.587ZM234.447 26.4556C230.402 26.4556 227.561 23.3224 227.561 18.914C227.561 14.542 230.366 11.3723 234.447 11.3723C238.527 11.3723 241.624 14.5056 241.624 18.914C241.624 23.3224 238.527 26.4556 234.447 26.4556Z" fill="white"/>
<path d="M60.5226 9.41639V13.5333C58.9924 10.8008 56.2599 9.01562 52.7988 9.01562C47.3703 9.01562 43.4355 13.3511 43.4355 19.4355C43.4355 25.4833 47.3339 29.8553 52.7988 29.8553C56.2599 29.8553 58.956 28.1065 60.5226 25.4105V29.4545H63.5465V9.41639H60.5226ZM53.3817 26.9771C49.3377 26.9771 46.4959 23.8438 46.4959 19.4355C46.4959 15.0635 49.3012 11.8938 53.3817 11.8938C57.4622 11.8938 60.559 15.0271 60.559 19.4355C60.559 23.8438 57.4622 26.9771 53.3817 26.9771Z" fill="white"/>
<path d="M106.557 29.5612C105.866 29.5612 105.274 29.3269 104.781 28.8582C104.288 28.3649 104.041 27.7482 104.041 27.0082C104.041 26.2929 104.288 25.7009 104.781 25.2322C105.274 24.7389 105.866 24.4922 106.557 24.4922C107.248 24.4922 107.827 24.7265 108.296 25.1952C108.765 25.6639 108.999 26.2682 108.999 27.0082C108.999 27.7482 108.752 28.3649 108.259 28.8582C107.79 29.3269 107.223 29.5612 106.557 29.5612Z" fill="white"/>
<path d="M92.2517 9.53906C94.7184 9.53906 96.667 10.2544 98.0977 11.6851C99.553 13.1157 100.281 15.2371 100.281 18.0491V29.3341H96.7287V18.4561C96.7287 16.5567 96.2847 15.1261 95.3967 14.1641C94.5334 13.2021 93.2877 12.7211 91.6597 12.7211C89.859 12.7211 88.4284 13.2884 87.3677 14.4231C86.307 15.5331 85.7767 17.1364 85.7767 19.2331V29.3341H82.2247V18.4561C82.2247 16.5567 81.7807 15.1261 80.8927 14.1641C80.0294 13.2021 78.7837 12.7211 77.1557 12.7211C75.355 12.7211 73.9244 13.2884 72.8637 14.4231C71.803 15.5331 71.2727 17.1364 71.2727 19.2331V29.3341H67.7207V9.72406H71.1247V12.6471C71.84 11.6357 72.7774 10.8711 73.9367 10.3531C75.096 9.8104 76.4157 9.53906 77.8957 9.53906C79.425 9.53906 80.7817 9.84739 81.9657 10.4641C83.1497 11.0807 84.0624 11.9811 84.7037 13.1651C85.4437 12.0304 86.4674 11.1424 87.7747 10.5011C89.1067 9.85973 90.599 9.53906 92.2517 9.53906Z" fill="white"/>
<path d="M41.1564 19.2701C41.1564 19.5515 41.1308 19.9223 41.0796 20.3827H24.5833C24.8135 22.173 25.5935 23.618 26.9235 24.7178C28.279 25.792 29.9542 26.329 31.9491 26.329C34.3788 26.329 36.3353 25.5106 37.8187 23.8738L39.852 26.2523C38.9313 27.3265 37.7804 28.1449 36.3993 28.7076C35.0438 29.2703 33.522 29.5516 31.834 29.5516C29.6857 29.5516 27.7803 29.1168 26.1178 28.2472C24.4554 27.3521 23.1638 26.1116 22.2431 24.526C21.348 22.9403 20.9004 21.15 20.9004 19.155C20.9004 17.1857 21.3352 15.4082 22.2048 13.8225C23.0999 12.2368 24.3148 11.0092 25.8493 10.1396C27.4094 9.24445 29.1614 8.79688 31.1051 8.79688C33.0489 8.79688 34.7752 9.24445 36.2842 10.1396C37.8187 11.0092 39.008 12.2368 39.852 13.8225C40.7216 15.4082 41.1564 17.2241 41.1564 19.2701ZM31.1051 11.9043C29.3404 11.9043 27.857 12.4414 26.6549 13.5156C25.4784 14.5898 24.7879 15.9964 24.5833 17.7356H37.6269C37.4223 16.022 36.719 14.6281 35.5169 13.554C34.3404 12.4542 32.8698 11.9043 31.1051 11.9043Z" fill="white"/>
<path d="M10.0255 6.06141H0.912109V2.75781H22.8981V6.06141H13.7847V29.3385H10.0255V6.06141Z" fill="white"/>
</svg>
