<svg width="25" height="25" viewBox="0 0 25 25" fill="none" xmlns="http://www.w3.org/2000/svg">
<path fill-rule="evenodd" clip-rule="evenodd" d="M15.458 2.07377C15.458 1.26501 16.1136 0.609375 16.9224 0.609375H23.1352C23.944 0.609375 24.5996 1.26501 24.5996 2.07377V8.28666C24.5996 9.09542 23.944 9.75106 23.1352 9.75106C22.3265 9.75106 21.6709 9.09542 21.6709 8.28666V5.60881L13.8157 13.4641C13.2439 14.036 12.3167 14.036 11.7448 13.4641C11.1729 12.8922 11.1729 11.9649 11.7448 11.3931L19.5996 3.53817H16.9224C16.1136 3.53817 15.458 2.88253 15.458 2.07377ZM4.99272 1.91128C2.56648 1.91128 0.599609 3.87818 0.599609 6.30446V20.2162C0.599609 22.6425 2.56648 24.6094 4.99272 24.6094H18.9043C21.3305 24.6094 23.2974 22.6425 23.2974 20.2162V14.3586C23.2974 13.5499 22.6418 12.8943 21.833 12.8943C21.0243 12.8943 20.3687 13.5499 20.3687 14.3586V20.2162C20.3687 21.0249 19.7131 21.6805 18.9043 21.6805H4.99272C4.18398 21.6805 3.52836 21.0249 3.52836 20.2162V6.30446C3.52836 5.49569 4.18398 4.84007 4.99272 4.84007H10.8502C11.659 4.84007 12.3146 4.18443 12.3146 3.37567C12.3146 2.56691 11.659 1.91128 10.8502 1.91128H4.99272Z" fill="#FF7438"/>
</svg>
