<svg width="242" height="31" viewBox="0 0 242 31" fill="none" xmlns="http://www.w3.org/2000/svg">
<path d="M123.091 30.0059C127.597 30.0059 131.339 27.9871 131.339 23.8393C131.339 20.0586 128.251 19.2511 123.127 17.9664C119.094 16.9387 117.495 16.4982 117.495 14.8831C117.495 13.158 119.385 11.91 122.619 11.91C125.308 11.91 127.233 12.7542 127.996 14.8097H131.049C130.249 11.1759 127.233 9.01025 122.546 9.01025C117.822 9.01025 114.443 11.2126 114.443 15.1034C114.443 18.4069 116.841 19.3979 122.364 20.7928C126.034 21.7104 128.251 22.1142 128.251 24.0963C128.251 26.0417 126.071 27.1061 123.091 27.1061C119.385 27.1061 117.314 26.1151 116.514 23.2887H113.426C114.225 27.5466 117.859 30.0059 123.091 30.0059Z" fill="black"/>
<path d="M143.119 9.01025C137.16 9.01025 132.909 13.4516 132.909 19.5815C132.909 25.748 137.233 30.0059 143.155 30.0059C147.334 30.0059 150.968 27.9136 152.639 23.6191H149.514C148.315 25.9682 146.026 27.1428 143.264 27.1428C139.231 27.1428 136.288 24.6101 135.997 20.4257H153.111C153.366 13.782 149.332 9.01025 143.119 9.01025ZM143.119 11.8733C146.716 11.8733 149.187 14.1857 149.841 17.5627H136.143C136.833 14.2592 139.449 11.8733 143.119 11.8733Z" fill="black"/>
<path d="M165.185 9.01025C159.516 9.01025 154.902 13.4516 154.902 19.5081C154.902 25.5278 159.444 30.0059 165.185 30.0059C170.962 30.0059 175.504 25.5645 175.504 19.5081C175.504 13.4516 170.889 9.01025 165.185 9.01025ZM165.185 11.91C169.218 11.91 172.452 15.0667 172.452 19.5081C172.452 23.9494 169.254 27.1061 165.185 27.1061C161.151 27.1061 157.954 23.9494 157.954 19.5081C157.954 15.03 161.188 11.91 165.185 11.91Z" fill="black"/>
<path d="M191.793 26.1885C190.303 26.7391 188.85 27.1795 187.433 27.1795C184.308 27.1795 182.782 25.1974 182.782 21.7471V12.277H191.757V9.41401H182.782V3.90817L179.766 4.56887V9.41401H175.915V12.277H179.766V21.8939C179.766 27.2162 182.637 30.0059 186.924 30.0059C189.104 30.0059 191.248 29.3085 192.338 28.7212L191.793 26.1885Z" fill="black"/>
<path d="M196.103 0.53125C194.904 0.53125 193.996 1.41219 193.996 2.55006C193.996 3.72464 194.904 4.60557 196.103 4.60557C197.303 4.60557 198.211 3.72464 198.211 2.55006C198.211 1.41219 197.303 0.53125 196.103 0.53125ZM194.577 29.6021H197.593V9.41401H194.577V29.6021Z" fill="black"/>
<path d="M210.655 30.0059C215.233 30.0059 219.266 27.2529 220.356 22.5546H217.231C216.287 25.381 213.743 27.1795 210.655 27.1795C206.476 27.1795 203.388 23.9861 203.388 19.5081C203.388 15.0667 206.44 11.8366 210.655 11.8366C213.743 11.8366 216.287 13.5985 217.231 16.4615H220.356C219.303 11.8366 215.306 9.01025 210.655 9.01025C204.805 9.01025 200.335 13.4883 200.335 19.5081C200.335 25.5278 204.805 30.0059 210.655 30.0059Z" fill="black"/>
<path d="M238.979 9.41401V13.5617C237.453 10.8088 234.728 9.01025 231.276 9.01025C225.862 9.01025 221.938 13.3782 221.938 19.5081C221.938 25.6012 225.826 30.0059 231.276 30.0059C234.728 30.0059 237.417 28.244 238.979 25.5278V29.6021H241.995V9.41401H238.979ZM231.858 27.1061C227.824 27.1061 224.99 23.9494 224.99 19.5081C224.99 15.1034 227.788 11.91 231.858 11.91C235.927 11.91 239.016 15.0667 239.016 19.5081C239.016 23.9494 235.927 27.1061 231.858 27.1061Z" fill="black"/>
<path d="M58.3969 9.93941V14.0871C56.8708 11.3342 54.1456 9.53564 50.6937 9.53564C45.2797 9.53564 41.3555 13.9036 41.3555 20.0335C41.3555 26.1266 45.2434 30.5313 50.6937 30.5313C54.1456 30.5313 56.8344 28.7694 58.3969 26.0532V30.1275H61.4127V9.93941H58.3969ZM51.2751 27.6315C47.2418 27.6315 44.4077 24.4748 44.4077 20.0335C44.4077 15.6288 47.2055 12.4354 51.2751 12.4354C55.3447 12.4354 58.4332 15.5921 58.4332 20.0335C58.4332 24.4748 55.3447 27.6315 51.2751 27.6315Z" fill="black"/>
<path d="M104.306 30.2349C103.617 30.2349 103.027 29.9988 102.535 29.5266C102.043 29.0296 101.797 28.4083 101.797 27.6628C101.797 26.9421 102.043 26.3456 102.535 25.8735C103.027 25.3764 103.617 25.1279 104.306 25.1279C104.995 25.1279 105.573 25.364 106.041 25.8362C106.508 26.3084 106.742 26.9172 106.742 27.6628C106.742 28.4083 106.496 29.0296 106.004 29.5266C105.536 29.9988 104.97 30.2349 104.306 30.2349Z" fill="black"/>
<path d="M88.3622 9.85059C90.6288 9.85059 92.4195 10.5787 93.7342 12.035C95.0715 13.4913 95.7401 15.6507 95.7401 18.5131V30.0003H92.4762V18.9274C92.4762 16.994 92.0682 15.5377 91.2522 14.5585C90.4588 13.5792 89.3142 13.0896 87.8182 13.0896C86.1635 13.0896 84.8489 13.6671 83.8742 14.8221C82.8995 15.952 82.4122 17.584 82.4122 19.7183V30.0003H79.1482V18.9274C79.1482 16.994 78.7402 15.5377 77.9242 14.5585C77.1309 13.5792 75.9863 13.0896 74.4903 13.0896C72.8356 13.0896 71.5209 13.6671 70.5463 14.8221C69.5716 15.952 69.0843 17.584 69.0843 19.7183V30.0003H65.8203V10.0389H68.9483V13.0143C69.6056 11.9848 70.467 11.2065 71.5323 10.6792C72.5976 10.1268 73.8103 9.85059 75.1703 9.85059C76.5756 9.85059 77.8222 10.1644 78.9102 10.7922C79.9982 11.4199 80.8369 12.3363 81.4262 13.5416C82.1062 12.3866 83.0469 11.4826 84.2482 10.8298C85.4722 10.177 86.8435 9.85059 88.3622 9.85059Z" fill="black"/>
<path d="M39.0847 19.8671C39.0847 20.1505 39.0592 20.5241 39.0081 20.9879H22.5559C22.7854 22.7916 23.5634 24.2475 24.8898 25.3555C26.2417 26.4377 27.9124 26.9788 29.902 26.9788C32.3252 26.9788 34.2765 26.1543 35.756 24.5052L37.7838 26.9015C36.8655 27.9837 35.7177 28.8083 34.3403 29.3751C32.9884 29.942 31.4707 30.2255 29.7872 30.2255C27.6446 30.2255 25.7443 29.7874 24.0863 28.9113C22.4283 28.0095 21.1402 26.7598 20.222 25.1622C19.3292 23.5647 18.8828 21.761 18.8828 19.7511C18.8828 17.7671 19.3164 15.9762 20.1837 14.3787C21.0764 12.7811 22.288 11.5443 23.8185 10.6682C25.3744 9.76635 27.1217 9.31543 29.0603 9.31543C30.9988 9.31543 32.7206 9.76635 34.2255 10.6682C35.7559 11.5443 36.942 12.7811 37.7838 14.3787C38.651 15.9762 39.0847 17.8057 39.0847 19.8671ZM29.0603 12.4461C27.3003 12.4461 25.8208 12.9872 24.622 14.0695C23.4486 15.1517 22.7599 16.5689 22.5559 18.321H35.5646C35.3606 16.5946 34.6591 15.1903 33.4603 14.1081C32.2869 13.0001 30.8203 12.4461 29.0603 12.4461Z" fill="black"/>
<path d="M8.2641 6.17868H-0.00390625V2.79785H19.9426V6.17868H11.6746V29.9999H8.2641V6.17868Z" fill="black"/>
</svg>
