<svg width="277" height="63" viewBox="0 0 277 63" fill="none" xmlns="http://www.w3.org/2000/svg">
<path fill-rule="evenodd" clip-rule="evenodd" d="M245.97 16.2567C232.363 12.8622 205.085 7.6655 188.933 5.40825C150.543 0.0178414 107.972 -1.26474 72.1631 1.89459C46.5592 4.12465 27.8357 6.83436 17.365 9.84124C9.89638 11.9508 4.0789 14.9973 3.19127 17.2347C2.90546 18.0159 2.93827 18.0262 3.80142 17.1035C6.25444 14.4859 13.2061 12.7304 31.7748 10.0366C37.0682 9.24474 45.5055 8.01935 50.4892 7.25944C67.7089 4.6911 91.2604 2.49497 106.57 2.0371C125.213 1.49524 148.195 2.02315 163.831 3.37685C185.54 5.27977 195.716 6.66345 216.796 10.6268C238.424 14.6976 240.714 15.2542 253.292 19.1648C264.086 22.5485 264.337 22.6594 267.574 24.5125C273.895 28.1388 275.74 30.0397 276.081 33.3396C276.522 37.0255 275.425 38.8746 271.433 41.268C268.239 43.1692 258.575 46.9129 253.088 48.3535C226.496 55.3053 194.31 59.1162 146.005 61.0354C119.86 62.0638 97.586 61.8867 63.4171 60.2708C35.9999 58.9974 21.0656 56.5736 10.0923 51.6501C4.25186 49.013 2.36159 47.1304 1.89713 43.5015C1.63268 41.4513 1.71125 40.9921 2.61989 38.7936C3.52853 36.595 3.80396 36.1975 5.72193 34.6056C11.1492 30.0823 20.3032 25.5983 31.4299 21.9907C40.364 19.1149 55.7922 15.5012 66.1046 13.8638C72.0855 12.9327 83.0135 11.7786 90.0955 11.3217C96.5582 10.9286 120.106 10.086 133.847 9.74897C139.53 9.62766 144.2 9.44678 144.146 9.39766C143.873 8.89276 98.4068 9.86327 85.9998 10.6506C67.3741 11.7784 45.4032 15.8891 29.5439 21.1738C15.053 26.0166 3.79626 32.8086 1.66037 37.9767C-0.0769034 42.2699 1.34852 47.0708 5.17457 49.5603C13.4003 54.9447 28.5684 58.5062 49.8142 60.0059C65.2257 61.0957 99.4849 62.2239 117.099 62.1982C143.823 62.1898 184.805 60.2329 204.231 58.0658C225.417 55.6763 235.222 54.0091 250.445 50.2663C258.828 48.1854 264.688 46.023 271.088 42.6431C275.317 40.3891 277.257 37.5785 276.898 34.1438C276.482 29.9496 274.37 27.7072 267.306 23.8157C264.186 22.1282 262.975 21.6517 255.825 19.3137C251.407 17.8966 246.978 16.5082 245.97 16.2567Z" fill="url(#paint0_linear_701_1768)"/>
<defs>
<linearGradient id="paint0_linear_701_1768" x1="139" y1="0.237943" x2="139.004" y2="110.643" gradientUnits="userSpaceOnUse">
<stop stop-color="#F7885C"/>
<stop offset="1" stop-color="#F8895D" stop-opacity="0"/>
</linearGradient>
</defs>
</svg>
