<svg width="57" height="56" viewBox="0 0 57 56" fill="none" xmlns="http://www.w3.org/2000/svg">
<circle cx="28.375" cy="28" r="27.5" stroke="#FF824D"/>
<path d="M40.0796 33.0534C40.014 33.0014 35.2516 29.5686 33.9444 29.815C33.3204 29.9254 32.9636 30.351 32.2476 31.203C32.1324 31.3406 31.8556 31.6702 31.6404 31.9046C31.1879 31.7571 30.7465 31.5774 30.3196 31.367C28.116 30.2942 26.3356 28.5138 25.2628 26.3102C25.0523 25.8834 24.8726 25.442 24.7252 24.9894C24.9604 24.7734 25.29 24.4966 25.4308 24.3782C26.2788 23.6662 26.7052 23.3094 26.8156 22.6838C27.042 21.3878 23.6116 16.5926 23.5756 16.5494C23.4199 16.3271 23.2168 16.1421 22.9809 16.0079C22.745 15.8737 22.4822 15.7936 22.2116 15.7734C20.8212 15.7734 16.8516 20.923 16.8516 21.7902C16.8516 21.8406 16.9244 26.9638 23.242 33.3902C29.662 39.7006 34.7844 39.7734 34.8348 39.7734C35.7028 39.7734 40.8516 35.8038 40.8516 34.4134C40.8316 34.1437 40.752 33.8818 40.6185 33.6466C40.485 33.4114 40.3009 33.2088 40.0796 33.0534Z" fill="#FF824D"/>
</svg>
