<svg width="1395" height="222" viewBox="0 0 1395 222" fill="none" xmlns="http://www.w3.org/2000/svg">
<path fill-rule="evenodd" clip-rule="evenodd" d="M1238.32 57.6859C1169.59 45.5513 1031.8 26.9573 950.213 18.8698C756.3 -0.442978 541.282 -5.1241 360.43 6.04544C231.118 13.9288 136.557 23.5395 83.6803 34.2307C45.9639 41.7312 16.5892 52.5755 12.1118 60.5485C10.6703 63.3324 10.836 63.3692 15.1931 60.0822C27.5759 50.7583 62.6825 44.5183 156.461 34.964C183.194 32.1551 225.806 27.8088 250.975 25.1129C337.94 16.0022 456.887 8.23456 534.211 6.64179C628.37 4.75818 744.445 6.69897 823.421 11.5644C933.073 18.4032 984.471 23.3614 1090.95 37.543C1200.2 52.1089 1211.77 54.0989 1275.31 68.0705C1329.83 80.1597 1331.1 80.5554 1347.45 87.1693C1379.39 100.112 1388.71 106.892 1390.44 118.656C1392.68 131.795 1387.14 138.383 1366.99 146.904C1350.86 153.673 1302.06 166.993 1274.35 172.114C1140.06 196.825 977.504 210.327 733.537 217.044C601.489 220.642 488.988 219.954 316.406 214.106C177.926 209.497 102.491 200.819 47.0552 183.241C17.5502 173.826 7.99813 167.11 5.64297 154.174C4.30199 146.865 4.69764 145.229 9.28129 137.394C13.8649 129.559 15.2551 128.143 24.9381 122.474C52.3379 106.364 98.5609 90.4045 154.749 77.5739C199.866 67.3461 277.78 54.5046 329.861 48.6945C360.066 45.391 415.257 41.3049 451.026 39.6945C483.666 38.3101 602.598 35.3671 671.996 34.201C700.701 33.7831 724.289 33.1504 724.017 32.9751C722.636 31.1747 493 34.5173 430.338 37.2918C336.267 41.2641 225.309 55.8603 145.222 74.657C72.0449 91.8823 15.2075 116.064 4.43292 134.48C-4.33051 149.779 2.88122 166.895 22.2119 175.779C63.7714 194.993 140.391 207.727 247.701 213.127C325.543 217.051 498.58 221.161 587.544 221.114C722.52 221.153 929.504 214.283 1027.61 206.608C1134.61 198.145 1184.13 192.228 1261 178.925C1303.34 171.529 1332.93 163.837 1365.25 151.805C1386.6 143.782 1396.4 133.768 1394.57 121.524C1392.46 106.573 1381.78 98.5742 1346.1 84.6849C1330.34 78.6617 1324.22 76.9602 1288.1 68.6078C1265.78 63.5454 1243.41 58.5848 1238.32 57.6859Z" fill="url(#paint0_linear_298_32)"/>
<defs>
<linearGradient id="paint0_linear_298_32" x1="697.999" y1="0.311932" x2="697.563" y2="252.809" gradientUnits="userSpaceOnUse">
<stop stop-color="#F7885C"/>
<stop offset="1" stop-color="#F8895D" stop-opacity="0"/>
</linearGradient>
</defs>
</svg>
